<?xml version="1.0" encoding="utf-8"?>
<!-- Generator: Adobe Illustrator 16.0.0, SVG Export Plug-In . SVG Version: 6.00 Build 0)  -->
<!DOCTYPE svg PUBLIC "-//W3C//DTD SVG 1.1//EN" "http://www.w3.org/Graphics/SVG/1.1/DTD/svg11.dtd">
<svg version="1.1" id="Layer_1" xmlns="http://www.w3.org/2000/svg" xmlns:xlink="http://www.w3.org/1999/xlink" x="0px" y="0px"
	 width="126px" height="126px" viewBox="0 0 126 126" enable-background="new 0 0 126 126" xml:space="preserve">
<g>
	<rect x="1.095" y="98.224" width="123.81" height="19.275"/>
	<rect x="1.095" y="85.74" width="123.81" height="5.205"/>
	<path d="M18.404,95.721c0.767,0,1.389-0.623,1.389-1.39s-0.622-1.388-1.389-1.388H3.481c-0.767,0-1.388,0.621-1.388,1.388
		s0.622,1.39,1.388,1.39H18.404z"/>
	<path d="M44.433,95.721c0.767,0,1.388-0.623,1.388-1.39s-0.622-1.388-1.388-1.388H29.51c-0.767,0-1.389,0.621-1.389,1.388
		s0.622,1.39,1.389,1.39H44.433z"/>
	<path d="M70.461,95.721c0.767,0,1.388-0.623,1.388-1.39s-0.622-1.388-1.388-1.388H55.539c-0.767,0-1.388,0.621-1.388,1.388
		s0.622,1.39,1.388,1.39H70.461z"/>
	<path d="M96.49,95.721c0.767,0,1.389-0.623,1.389-1.39s-0.622-1.388-1.389-1.388H81.567c-0.767,0-1.388,0.621-1.388,1.388
		s0.622,1.39,1.388,1.39H96.49z"/>
	<path d="M122.519,95.721c0.767,0,1.389-0.623,1.389-1.39s-0.622-1.388-1.389-1.388h-14.923c-0.767,0-1.388,0.621-1.388,1.388
		s0.622,1.39,1.388,1.39H122.519z"/>
	<path d="M7.41,80.9h53.442c0.863,0,1.562-0.699,1.562-1.562V39.543c0-0.862-0.699-1.563-1.562-1.563H45.314v-6.539
		c0-0.861-0.698-1.562-1.561-1.562H23.428c-0.863,0-1.562,0.7-1.562,1.562v6.54H7.41c-0.862,0-1.562,0.7-1.562,1.563v39.795
		C5.848,80.201,6.547,80.9,7.41,80.9z M34.492,57.874h-1.796v-6.768h1.796V57.874z M26.563,34.574h14.055v3.406H26.563V34.574z
		 M10.544,42.678h47.173v11.98H36.942v-4.006c0-0.863-0.699-1.563-1.562-1.563h-3.582c-0.863,0-1.562,0.699-1.562,1.563v4.006
		H10.544V42.678z"/>
	<path d="M68.734,80.9h49.958c0.807,0,1.46-0.653,1.46-1.46V17.534c0-0.806-0.653-1.459-1.46-1.459h-14.524V9.961
		c0-0.807-0.653-1.46-1.46-1.46h-19c-0.807,0-1.46,0.653-1.46,1.46v6.115H68.734c-0.807,0-1.46,0.653-1.46,1.459V79.44
		C67.274,80.247,67.927,80.9,68.734,80.9z M86.638,12.89h13.139v3.186H86.638V12.89z"/>
</g>
</svg>
